# xmcd CD database file
# Copyright (C) 1993-1998 Ti Kan
#
# Track frame offsets:
#	182
#	22675
#	39745
#	50375
#	65380
#	97330
#	108215
#	117320
#	131285
#	141927
#	179875
#	186062
#	195747
#	204927
#	228660
#	239702
#	249260
#	264215
#	275882
#
# Disc length: 3815 seconds
#
# Revision: 1
# Processed by: cddbd v1.4b41PL1 Copyright (c) Steve Scherf et al.
# Submitted via: CDValet v3.31 - Copyright (c) 1997 Greg Leichner
#
DISCID=190ee513
DTITLE=Andy Griffith - What It Is, Is Andy Griffith
DYEAR=1900
DGENRE=
TTITLE0=Andy and Cleopatra
TTITLE1=St. James Infirmary
TTITLE2=Once Knew A Fella
TTITLE3=Standing On The Corner
TTITLE4=Hamlet
TTITLE5=Thank Heaven For Little Girls
TTITLE6=Pick A Bale Of Cotton
TTITLE7=The Discovery Of America
TTITLE8=There's No Time For Sergeants
TTITLE9=Jack The Giant Killer
TTITLE10=Cindy
TTITLE11=Love Poems: To The Lovely Juanita Beasley
TTITLE12=Don't Look Back
TTITLE13=Let's Pull Together
TTITLE14=Pool Table
TTITLE15=Sourwood Mountain
TTITLE16=A Good Man Is Hard To Find
TTITLE17=She's Bad, Bad Business
TTITLE18=The Andy Griffith Theme
EXTD=
EXTT0=
EXTT1=
EXTT2=
EXTT3=
EXTT4=
EXTT5=
EXTT6=
EXTT7=
EXTT8=
EXTT9=
EXTT10=
EXTT11=
EXTT12=
EXTT13=
EXTT14=
EXTT15=
EXTT16=
EXTT17=
EXTT18=
PLAYORDER=
